<svg xmlns="http://www.w3.org/2000/svg" width="246" height="95" viewBox="0 0 246 95" fill="none"><g clip-path="url(#clip0_148_21337)"><path d="M217.131 74.3999C217.131 74.3999 204.811 78.2999 184.941 81.8299L185.481 85.0599C203.871 81.7999 215.781 78.2199 217.631 77.6499H245.291V74.3999H217.131Z" fill="#00A6CE"></path><path d="M60.8209 81.8301C40.9409 78.3001 28.6309 74.3901 28.6309 74.3901H0.130859V77.6401H28.1309C29.9809 78.2101 41.8909 81.8001 60.2809 85.0601L60.8209 81.8301Z" fill="#00A6CE"></path><path d="M65.3509 8.70996C44.1009 12.17 30.1409 16.36 28.1309 16.98H0.130859V20.23H28.6409C28.6409 20.23 43.0709 15.66 65.9009 11.94L65.3509 8.70996Z" fill="#00A6CE"></path><path d="M217.631 16.99C215.611 16.36 201.671 12.17 180.411 8.70996L179.871 11.94C202.711 15.66 217.131 20.24 217.131 20.24H245.291V16.99H217.631Z" fill="#00A6CE"></path><path d="M85.5297 9.69047C84.7297 10.5905 84.0297 11.1405 82.8297 11.2705C81.9597 11.3705 81.1297 11.1005 80.4897 10.5205C79.8597 9.96047 79.4597 9.14047 79.3597 8.23047V8.20047C79.1497 6.29047 80.3297 4.71047 82.0997 4.52047C83.0797 4.42047 83.9697 4.70047 84.9997 5.44047L85.0997 5.52047L86.5997 3.35047L86.5097 3.28047C85.1497 2.20047 83.7097 1.81047 81.8397 2.02047C80.1797 2.20047 78.7297 2.98047 77.7597 4.22047C76.8097 5.43047 76.3797 6.96047 76.5597 8.55047V8.58047C76.7297 10.1705 77.4797 11.5805 78.6797 12.5505C79.7097 13.3905 80.9897 13.8305 82.3497 13.8305C82.5797 13.8305 82.8097 13.8305 83.0397 13.7905C84.9997 13.5805 86.2797 12.8405 87.4697 11.2505L87.5397 11.1505L85.6197 9.60047L85.5297 9.69047Z" fill="#035595"></path><path d="M95.6104 0.980469L92.9004 1.18047L93.7504 12.6005L96.4504 12.4005L95.6204 1.11047L95.6104 0.980469Z" fill="#035595"></path><path d="M111.421 0.179688L102.021 0.559687L101.891 0.569687L101.991 3.08969L105.401 2.94969L105.761 11.7497L105.771 11.8697L108.481 11.7597L108.111 2.83969L111.521 2.69969L111.421 0.179688Z" fill="#035595"></path><path d="M122.82 4.42L120.19 0.06L117.01 0.08L121.46 7L121.49 11.5L124.21 11.49L124.18 6.93L128.42 0.2L128.54 0L125.44 0.02L122.82 4.42Z" fill="#035595"></path><path d="M148.73 0.699689C145.33 0.469689 142.48 2.88969 142.26 6.19969V6.22969C142.04 9.57969 144.47 12.2697 147.92 12.4997C148.07 12.4997 148.22 12.5197 148.37 12.5197C149.88 12.5197 151.3 12.0097 152.39 11.0597C153.57 10.0297 154.28 8.58969 154.39 6.99969V6.96969C154.49 5.37969 153.99 3.86969 152.96 2.69969C151.91 1.51969 150.41 0.809689 148.73 0.699689ZM151.57 6.81969V6.84969C151.44 8.75969 149.96 10.1197 148.12 9.98969C147.21 9.92969 146.4 9.51969 145.84 8.83969C145.29 8.16969 145.02 7.29969 145.08 6.38969V6.35969C145.14 5.44969 145.51 4.62969 146.14 4.04969C146.72 3.50969 147.48 3.20969 148.3 3.20969C148.38 3.20969 148.45 3.20969 148.53 3.20969C150.39 3.32969 151.69 4.87969 151.57 6.80969V6.81969Z" fill="#035595"></path><path d="M161.05 1.88988L160.92 1.87988L159.67 13.2499L162.36 13.5499L162.84 9.23988L168.03 9.81988L168.15 9.82988L168.42 7.35988L163.11 6.76988L163.35 4.64988L169.25 5.29988L169.37 5.30988L169.65 2.83988L161.05 1.88988Z" fill="#035595"></path><path d="M23.96 43.2398H9.49V30.0498H0V64.4998H9.49V51.2998H23.96V64.4998H33.44V30.0498H23.96V43.2398Z" fill="#035595"></path><path d="M50.8709 30.0498H41.3809V64.4998H50.8709V30.0498Z" fill="#035595"></path><path d="M98.0193 30.0498H88.5293V64.4998H112.179V57.2998H98.0193V30.0498Z" fill="#035595"></path><path d="M68.2808 30.0498H58.8008V64.4998H82.4408V57.2998H68.2808V30.0498Z" fill="#035595"></path><path d="M127.621 30.0498H118.141V64.4998H127.621V30.0498Z" fill="#035595"></path><path d="M155.48 30.0498H147.31L132.56 64.3298L132.49 64.4998H141.94L144.86 57.1998H157.66L160.61 64.4198L160.64 64.4998H170.32L155.53 30.1198L155.48 30.0498ZM155.27 50.9698H147.22L151.24 40.6598L155.27 50.9698Z" fill="#035595"></path><path d="M204.62 58.6098C202.33 58.6098 200.94 57.6498 199.66 55.1998L197.05 50.4298C201.3 49.0898 203.93 45.3798 203.93 40.7198C203.93 35.5598 200.7 30.0498 191.62 30.0498H175.58V64.4998H185.28V51.3298H188.22L190.99 57.8098C192.95 62.6498 196.32 64.8998 201.6 64.8998C203.15 64.8998 205.16 64.5798 206.71 64.0998L206.8 64.0698V58.2098L206.63 58.2698C205.86 58.5598 205.35 58.6098 204.62 58.6098ZM185.27 36.3998H189.23C192.68 36.3998 194.35 37.8498 194.35 40.8398C194.35 43.8298 192.67 45.2198 189.23 45.2198H185.27V36.3998Z" fill="#035595"></path><path d="M241.08 35.1098C237.62 31.7498 232.47 30.0498 225.79 30.0498H212.33V64.4998H225.79C232.47 64.4998 237.61 62.7998 241.08 59.4398C244.14 56.4798 245.76 52.2698 245.76 47.2698C245.76 42.2698 244.14 38.0698 241.08 35.1098ZM236.1 47.2698C236.1 54.0798 232.69 57.1198 225.05 57.1198H221.81V37.4198H225.05C232.69 37.4198 236.1 40.4598 236.1 47.2698Z" fill="#035595"></path><path d="M74.4896 82.0503C73.1296 81.8703 71.7996 82.1903 70.7596 82.9703C69.7396 83.7403 69.0796 84.8703 68.8996 86.1603V86.1903C68.7196 87.4803 69.0496 88.7403 69.8196 89.7503C70.5996 90.7703 71.7896 91.4403 73.1496 91.6303C73.3996 91.6603 73.6496 91.6803 73.8996 91.6803C74.9896 91.6803 76.0296 91.3503 76.8796 90.7103C77.8996 89.9403 78.5596 88.8103 78.7396 87.5003C78.9196 86.2103 78.5896 84.9503 77.8196 83.9403C77.0296 82.9003 75.8496 82.2403 74.4896 82.0503ZM76.4096 87.1903V87.2203C76.3096 87.9503 75.9596 88.5903 75.4296 89.0203C74.8896 89.4603 74.1896 89.6503 73.4596 89.5503C71.9696 89.3503 71.0096 88.0303 71.2296 86.4603C71.3296 85.7303 71.6796 85.0903 72.2096 84.6603C72.6596 84.3003 73.2096 84.1003 73.7996 84.1003C73.9196 84.1003 74.0496 84.1103 74.1796 84.1303C75.6596 84.3303 76.6196 85.6503 76.4096 87.1903Z" fill="#035595"></path><path d="M88.4505 87.4403L85.0305 87.1003L85.3805 83.5203L83.1405 83.3003L82.2305 92.6003L84.4705 92.8203L84.8205 89.1903L88.2505 89.5203L87.8905 93.1603L90.1405 93.3803L91.0505 84.0703L88.8105 83.8503L88.4505 87.4403Z" fill="#035595"></path><path d="M95.5829 84.4265L94.9258 93.7534L97.1702 93.9115L97.8273 84.5847L95.5829 84.4265Z" fill="#035595"></path><path d="M106.919 84.9203C104.139 84.8103 101.859 86.8303 101.749 89.5403V89.5703C101.629 92.3103 103.669 94.4603 106.489 94.5803H106.719C109.399 94.5803 111.549 92.5903 111.659 89.9303C111.779 87.2003 109.739 85.0403 106.919 84.9203ZM104.899 87.7303C105.369 87.2703 105.999 87.0203 106.689 87.0203H106.809C108.309 87.0803 109.389 88.3103 109.319 89.8603V89.8903C109.289 90.6203 108.999 91.2903 108.509 91.7703C108.009 92.2603 107.319 92.5203 106.599 92.4803C105.099 92.4203 104.019 91.1903 104.089 89.6103C104.119 88.8803 104.409 88.2103 104.899 87.7303Z" fill="#035595"></path><path d="M137.81 85.0601L136.32 85.1101L133.59 86.0301L134.13 87.8901L135.67 87.4501L135.92 94.4201V94.5401L138.14 94.4701L137.82 85.1901L137.81 85.0601Z" fill="#035595"></path><path d="M149.459 88.99C150.129 88.45 150.419 87.8 150.369 86.92C150.269 85.4 148.809 84.4 146.889 84.52C144.969 84.64 143.649 85.84 143.739 87.38C143.799 88.23 144.159 88.84 144.899 89.28C144.019 89.82 143.639 90.55 143.699 91.58V91.61C143.799 93.13 145.189 94.13 147.129 94.13C147.249 94.13 147.379 94.13 147.509 94.13C148.549 94.06 149.419 93.75 150.039 93.24C150.689 92.69 151.009 91.95 150.949 91.08C150.879 90.1 150.429 89.48 149.459 89V88.99ZM146.279 91.97C146.029 91.81 145.889 91.57 145.869 91.27C145.849 91.04 145.919 90.83 146.079 90.66C146.319 90.39 146.729 90.22 147.249 90.19C147.309 90.19 147.369 90.19 147.429 90.19C148.209 90.19 148.719 90.53 148.759 91.09V91.12C148.779 91.4 148.669 91.65 148.439 91.85C148.189 92.06 147.819 92.19 147.379 92.22C146.939 92.25 146.549 92.17 146.279 91.98V91.97ZM147.119 86.41C147.819 86.41 148.209 86.83 148.239 87.28V87.31C148.279 87.89 147.829 88.32 147.129 88.36C146.419 88.42 145.929 88.04 145.889 87.42C145.869 87.17 145.969 86.94 146.149 86.76C146.349 86.56 146.649 86.44 146.999 86.42C147.039 86.42 147.079 86.42 147.119 86.42V86.41Z" fill="#035595"></path><path d="M162.02 87.2501C161.41 86.8401 160.58 86.6701 159.62 86.7701C159.17 86.8101 158.86 86.9001 158.58 86.9901L158.54 85.7001L162.28 85.3201H162.4L162.2 83.3101L156.39 83.8901L156.59 88.5701L157.94 89.2801L158 89.2501C158.5 88.9801 158.96 88.8201 159.43 88.7801C159.87 88.7401 160.26 88.8001 160.54 88.9701C160.82 89.1401 160.99 89.4001 161.02 89.7601C161.09 90.4801 160.63 90.9401 159.74 91.0301C159.03 91.1001 158.36 90.8701 157.57 90.2901L157.47 90.2101L156.27 91.9701L156.36 92.0401C157.29 92.7701 158.26 93.1101 159.39 93.1101C159.58 93.1101 159.78 93.1101 159.98 93.0801C161.04 92.9701 161.9 92.5801 162.48 91.9401C163.06 91.2901 163.32 90.4401 163.22 89.4401C163.12 88.4601 162.72 87.7201 162.02 87.2501Z" fill="#035595"></path><path d="M175.161 88.1101C174.931 86.4001 173.651 85.9101 172.521 85.8201L174.381 83.4801L174.151 81.8101L167.811 82.6701L168.071 84.6201L171.441 84.1601L169.721 86.4301L170.261 87.8101L171.181 87.6901C172.221 87.5501 172.871 87.8401 172.961 88.5101C173.041 89.1001 172.641 89.5401 171.941 89.6401C171.131 89.7501 170.461 89.5201 169.711 88.8801L169.611 88.8001L168.271 90.4801L168.361 90.5601C169.221 91.3301 170.241 91.7301 171.411 91.7301C171.661 91.7301 171.921 91.7101 172.191 91.6801C173.191 91.5401 174.001 91.1301 174.531 90.4701C175.071 89.8401 175.291 89.0101 175.161 88.1101Z" fill="#035595"></path><path d="M122.879 87.71C121.589 87.71 120.539 88.76 120.539 90.05C120.539 91.34 121.589 92.39 122.879 92.39C124.169 92.39 125.219 91.34 125.219 90.05C125.219 88.76 124.169 87.71 122.879 87.71Z" fill="#035595"></path></g><defs><clipPath id="clip0_148_21337"><rect width="245.76" height="94.58" fill="white"></rect></clipPath></defs></svg>